Coordinates
version=1
nRows=6
nColumns=36
inDegrees=yes

Units are S.I. units (second, meters, Newtons, ...)
If the header above contains a line with 'inDegrees', this indicates whether rotational values are in degrees (yes) or radians (no).

endheader
time	pelvis_tilt	pelvis_list	pelvis_rotation	pelvis_tx	pelvis_ty	pelvis_tz	hip_flexion_r	hip_adduction_r	hip_rotation_r	knee_angle_r	knee_angle_r_beta	ankle_angle_r	subtalar_angle_r	mtp_angle_r	hip_flexion_l	hip_adduction_l	hip_rotation_l	knee_angle_l	knee_angle_l_beta	ankle_angle_l	subtalar_angle_l	mtp_angle_l	lumbar_extension	lumbar_bending	lumbar_rotation	arm_flex_r	arm_add_r	arm_rot_r	elbow_flex_r	pro_sup_r	arm_flex_l	arm_add_l	arm_rot_l	elbow_flex_l	pro_sup_l
      0.00000000	     -6.78707437	     -8.07691478	      0.37716875	      0.82045046	      0.82123334	      0.04490053	     56.40188896	      6.24949039	     -7.13194038	     17.44867582	      0.30453684	      3.62843778	    -29.88841395	     -6.36303170	     46.98526364	     -3.83762830	      2.88380518	     41.69848943	      0.72777593	     22.85363131	     -9.87019543	     -6.36303170	      9.48947807	      3.10184158	     -3.40723104	     -0.90407298	     -3.73642840	      4.77737838	     22.35742213	     79.22818309	     -7.73464381	     -8.33271386	      5.68167701	     26.28288561	     77.62793181
      0.01666670	    -30.96179236	     -7.01334619	     -2.89290121	      0.81613892	      0.78923624	      0.04876155	     78.91214686	      7.87060066	     -0.15766224	     18.63145576	      0.32518025	      1.35831260	    -33.91226140	     -6.62821755	     73.12807539	     -0.18732057	      6.39822653	     47.12993633	      0.82257257	     29.10986658	     -8.61337240	     -6.62821755	     46.51059612	      2.50747953	     -6.59507690	    -10.14084027	     -3.83794868	     -0.33179932	     24.72411600	     85.38275716	    -17.71496721	     -6.48309288	     -0.28282060	     27.56172528	     80.94294509
      0.03333330	    -35.36805099	     -4.04431266	     -2.02424193	      0.80352518	      0.78340518	      0.04839504	     84.72008496	      6.15417476	      1.60034921	     22.76062304	      0.39724781	      0.47177954	    -34.23023090	     -7.02128428	     77.87212237	      2.65514597	      4.04007858	     48.13250346	      0.84007066	     30.03054603	     -7.39479249	     -7.02128428	     51.10905780	     -0.73911252	     -6.07439048	    -11.14312886	     -3.02367864	     -3.75763685	     28.23829091	     93.20264931	    -18.51546461	     -7.32282559	     -1.41900283	     30.15792013	     83.73785577
      0.05000000	    -34.93617869	     -4.39958313	     -2.14071347	      0.80105719	      0.77689771	      0.04673275	     85.87248396	      6.58295179	      2.38746925	     25.11928070	      0.43841415	     -0.34819942	    -34.30817657	     -7.17792719	     78.17462977	      3.12085100	      6.24198802	     49.40717663	      0.86231791	     29.90534629	    -10.05047698	     -7.17792719	     49.18191161	      0.17900091	     -6.13736668	    -11.10970262	     -3.67287443	     -4.31040568	     32.01955578	     96.84139115	    -17.82622462	     -8.06963118	      1.52106856	     32.51793451	     86.42037015
      0.06666670	    -34.35539795	     -4.76936897	     -2.20414055	      0.79152172	      0.77808958	      0.04800314	     87.01688876	      7.00722432	      2.86830272	     27.69558916	      0.48337922	      0.78706527	    -34.34477088	     -7.23310893	     78.54091041	      3.55090872	      7.87883720	     50.11161063	      0.87461260	     28.54565473	    -13.61711258	     -7.23310893	     46.46107663	      0.75871934	     -7.01776811	    -10.96319013	     -4.82787007	     -1.31505335	     36.06117837	     94.63721762	    -17.45661643	     -9.17009989	      5.03548190	     36.23194022	     85.58700107
      0.08333330	    -30.74336668	     -4.49580779	     -1.51415156	      0.79002818	      0.78309491	      0.04774029	     85.01229145	      6.81627356	      3.71719189	     30.76231739	      0.53690372	      0.52653962	    -34.35538225	     -7.37509452	     75.28163849	      4.27478827	      8.40925929	     50.66291898	      0.88423474	     28.48028032	    -15.01458557	     -7.37509452	     39.65974267	      0.12640899	     -7.12360917	     -9.61927968	     -5.29334694	      0.12925060	     38.52137511	     99.96595570	    -16.31077659	    -10.78078023	      6.56885804	     40.29073510	     92.70752736
